<svg width="128" height="117" viewBox="0 0 128 117" fill="none" xmlns="http://www.w3.org/2000/svg">
<g id="CO-maskot_Vitez-Bezi">
<path id="Vector" d="M120.724 14.8136C120.132 14.1551 119.276 13.9064 118.174 14.0625C116.894 12.0416 114.752 11.9882 113.288 13.3164C112.785 13.5409 112.108 17.0228 111.714 18.6872C110.509 16.469 107.707 15.018 105.986 17.1688C104.487 19.3336 106.536 20.6366 107.103 22.3111C107.417 23.3643 107.65 25.072 107.581 25.6339C107.726 34.0315 106.88 37.9041 106.117 38.6663C105.566 39.2111 104.138 39.936 102.607 40.6721C101.948 37.9182 100.906 37.1681 99.6777 36.722C99.6878 35.1885 99.7564 33.2351 99.2108 31.8123L99.2057 31.8073C99.1482 31.475 99.0242 31.1749 98.8476 30.9101C98.8497 30.902 98.8436 30.9 98.8426 30.895C97.4144 27.831 94.3039 25.7054 90.7053 25.7054H56.5269C52.8768 25.7054 49.73 27.8874 48.3331 31.0188H44.9634C45.3386 28.5046 46.1727 22.294 48.2605 18.365C49.2307 16.8879 51.5435 16.1337 50.6287 13.6627C49.5041 11.1575 46.4248 11.8583 44.7042 13.704C44.7435 11.9892 44.9503 8.46304 44.5226 8.11566C43.4434 6.4603 41.3506 5.98 39.6047 7.62328C35.3918 6.34047 35.0226 10.2604 35.8396 15.7934C36.3217 18.9953 37.2849 20.2983 38.0565 22.9938C37.8749 24.3309 37.4493 27.7323 37.4181 31.0188H22.8216C22.2034 31.0188 21.7001 31.5213 21.7001 32.1385C21.7001 32.7558 22.2034 33.2582 22.8216 33.2582H37.4594C37.9425 38.2122 38.0706 37.2154 41.8418 41.4645H7.57468C6.95641 41.4645 6.45312 41.967 6.45312 42.5842C6.45312 43.2015 6.95641 43.7039 7.57468 43.7039H44.0486C45.1651 44.7974 46.3593 45.907 47.5484 46.8918V66.8296H13.8532C13.2349 66.8296 12.7316 67.3321 12.7316 67.9493C12.7316 68.5666 13.2349 69.074 13.8532 69.074H47.5534C47.5534 69.5513 47.5998 70.0175 47.6836 70.4736C45.3426 70.6921 43.8095 71.0425 44.0798 73.0705C45.0017 74.9705 47.618 74.8265 50.2696 75.3672C50.9131 75.9895 51.9308 77.5099 55.595 77.7083C59.2633 77.9077 63.9573 77.9077 66.1641 77.9077C66.8903 86.4684 56.0428 80.8962 49.1369 79.4835C46.6084 78.8088 43.8297 79.8409 41.3223 82.3914C37.4987 86.3345 33.8123 94.8258 40.2472 95.5749C44.9099 95.9656 47.5474 85.4524 51.8218 87.2024C60.9819 91.2361 73.2091 93.0758 73.2212 80.5468C78.0403 84.953 82.9622 90.2876 87.2932 95.1812H62.5815C61.9633 95.1812 61.46 95.6837 61.46 96.3059C61.46 96.9282 61.9633 97.4256 62.5815 97.4256H89.2619C90.5983 98.9561 91.8329 100.378 93.0109 101.749H79.6238C79.0005 101.749 78.5022 102.252 78.5022 102.869C78.5022 103.486 79.0005 103.989 79.6238 103.989H94.9525C97.6152 106.631 99.479 110.487 103.151 110.635C107.611 110.569 111.944 105.073 113.646 100.946C115.302 97.1719 114.884 93.0707 111.335 92.7546C108.793 92.68 106.016 96.3563 103.676 99.5925C95.2016 89.3955 90.561 85.3487 82.7444 77.9077H90.7053C95.6534 77.9077 99.6777 73.8901 99.6777 68.9441V57.0525C100.945 54.5171 101.822 51.8267 102.341 49.2822C106.921 46.8978 111.418 43.7563 111.496 43.6989C114.238 41.7082 115.542 31.8536 115.832 29.3343C118.212 26.237 123.37 17.4618 120.724 14.8136ZM49.7915 34.6679C49.7663 31.043 52.7941 27.9226 56.5269 27.9437H90.7053C92.6054 27.9437 94.3301 28.7372 95.5556 30.0069C95.3166 30.1257 95.0886 30.2919 94.8808 30.4993L74.9873 50.3535C75.429 50.5298 76.0463 50.716 76.8925 50.8922C81.052 51.7471 83.8508 50.6899 83.8821 50.6798C84.7676 50.2972 85.7339 51.289 85.3254 52.163C84.2976 54.5423 81.7993 56.4967 78.6061 56.4967C76.2036 56.5601 73.2404 55.1917 72.2298 53.1064C69.91 55.4223 57.2521 68.0591 55.2188 70.089C53.2006 70.2199 51.6524 70.2773 49.9378 70.3427C49.5888 68.2222 49.8853 51.1299 49.7925 48.6005C51.9297 49.9689 53.9792 51.2004 55.4891 49.2178C57.6434 45.75 53.5889 41.9338 49.7925 38.7308V34.6669L49.7915 34.6679ZM90.0093 42.5842V46.3118C90.0325 47.7628 87.746 47.7658 87.7662 46.3118V42.5842C87.746 41.1323 90.0335 41.1313 90.0093 42.5842ZM47.6624 33.2582C47.4849 34.1453 47.5645 35.9275 47.5484 36.8509C45.9589 35.3174 44.9926 35.0827 44.8797 33.2582H47.6624ZM47.5484 43.9164C45.1409 41.7424 42.2795 38.8355 40.3985 36.5548C38.8482 32.643 39.988 27.6205 40.2845 22.6363C39.5422 19.825 38.5275 18.5392 38.0565 15.451C37.2516 10.2614 38.1755 9.58776 38.1816 9.58273C38.3772 9.52936 38.5396 9.60387 38.9602 9.79518C39.3586 12.0577 38.8553 14.278 39.2255 16.9694L41.4534 16.7207C41.0863 13.9437 41.6542 11.7274 41.1418 9.26051C41.4504 8.81345 42.2018 8.73793 42.5175 9.1417C42.7192 11.2653 41.7984 17.4558 43.6239 17.3943C44.335 17.6018 44.9745 17.2282 45.5241 16.2908C46.3865 14.8338 47.6119 14.2326 48.2141 14.279C49.5686 14.5871 46.6326 16.3129 46.3552 17.1819C44.1323 21.1471 43.1005 27.9145 42.7202 31.0178C42.0929 35.3073 43.7853 36.7663 47.3477 39.6128C49.4415 41.6105 54.7296 45.0582 53.599 48.0054C52.4774 48.2108 49.0078 45.2334 47.5494 43.9154L47.5484 43.9164ZM65.7798 73.1591C58.9788 73.8347 53.5344 73.7239 47.9115 72.6979C56.653 72.4381 66.7037 71.6165 75.3968 68.2443C75.5269 69.2603 75.8486 70.2199 76.3418 71.0848C74.9933 71.4816 73.6317 71.8229 72.2661 72.1109C72.251 72.1008 72.2348 72.0897 72.2197 72.0797C72.2247 72.0948 72.2298 72.1058 72.2298 72.1209C70.0956 72.5801 67.9402 72.9214 65.7808 73.1581L65.7798 73.1591ZM68.6614 86.7675C65.1565 89.6029 57.8452 87.1873 52.6519 85.1191C48.7991 83.5846 46.327 86.9487 44.338 89.6452C42.5518 92.0709 41.2689 93.6316 39.7943 93.2792C37.652 92.1846 40.2794 86.6527 42.925 83.9632C45.8298 80.8488 48.1788 81.3251 52.0276 82.5999C61.7152 85.1866 68.151 87.3636 68.4001 77.9077H70.2015C70.4456 78.105 70.6896 78.3124 70.9337 78.5249C71.1828 82.5737 70.4244 85.3366 68.6593 86.7675H68.6614ZM102.363 101.557C103.24 103.487 104.425 102.538 105.889 100.37C107.051 98.9501 110.498 93.6235 111.98 95.4037C114.186 97.5968 106.837 111.197 101.454 107.731C91.3538 97.1497 81.7055 84.0468 69.9393 74.8124C71.4844 74.5466 73.0205 74.2344 74.5506 73.8538C83.9356 81.0996 101.44 99.523 102.363 101.557ZM88.5186 68.3279C87.0037 75.4075 76.3237 73.3061 77.6923 66.1298C79.2597 59.0724 89.8409 61.2232 88.5186 68.3279ZM100.669 44.0825C100.664 46.0923 100.288 48.4978 99.7292 50.5469C99.714 50.5519 99.6929 50.562 99.6777 50.568C98.3666 56.0396 95.1542 61.4074 90.3724 64.4976C89.973 63.4353 89.3386 62.4707 88.5035 61.6672C95.9984 56.834 98.658 51.0523 99.6102 43.3626C99.6313 43.3475 99.6565 43.3364 99.6777 43.3263C99.6808 42.266 99.9228 40.9983 100.067 40.0347C100.539 41.1353 100.698 42.7876 100.669 44.0835V44.0825ZM117.717 22.0291C116.515 25.0328 114.822 26.083 113.626 28.856C113.096 33.6096 111.678 40.7949 110.178 41.8834C108.179 43.3293 105.427 45.0401 102.778 46.4971C102.908 45.2525 102.95 44.0765 102.892 43.0081C104.995 42.0133 106.802 41.1423 107.7 40.2502C109.242 38.7106 109.958 33.8009 109.829 25.657C109.864 23.8527 109.397 21.1703 108.256 19.7374C107.529 18.6389 107.542 18.4194 108.173 18.364C108.76 18.4727 109.804 19.3598 110.271 20.982C110.578 22.0292 111.097 22.5427 111.839 22.5266C113.577 23.0502 114.266 16.7942 114.971 14.8076C115.379 14.4965 116.083 14.7593 116.274 15.2637C115.169 17.5242 115.159 19.815 114.109 22.4128L116.207 23.2062C117.238 20.697 117.311 18.4153 118.253 16.322C118.804 16.2032 119.032 16.2807 119.058 16.3119C119.068 16.322 119.79 17.204 117.718 22.0302L117.717 22.0291Z" fill="#FE5900"/>
<path id="Vector_2" d="M75.1372 47.4313C75.7555 47.4313 76.2587 46.9289 76.2587 46.3116V42.584C76.2587 41.9668 75.7555 41.4644 75.1372 41.4644C74.5189 41.4644 74.0156 41.9668 74.0156 42.584V46.3116C74.0156 46.9289 74.5189 47.4313 75.1372 47.4313Z" fill="#FE5900"/>
<path id="Vector_3" d="M84.5664 69.1465C84.4191 67.6442 84.1236 64.5882 83.9743 63.0869L80.0176 65.6948C80.2354 66.0211 81.0282 67.2183 81.2582 67.5667L82.0993 67.0119C82.2052 68.0671 82.3666 69.7587 82.4685 70.8009C82.9627 70.7525 84.2295 70.6297 84.7065 70.5834C84.6894 70.4353 84.5835 69.3237 84.5664 69.1475V69.1465Z" fill="#FE5900"/>
</g>
</svg>
